PathFileType	4	(X/Y/Z)	C:\Users\°ÂÌØÂü\Desktop\20210112\bx_n_0_501-Unnamed.trc
DataRate	CameraRate	NumFrames	NumMarkers	Units	OrigDataRate	OrigDataStartFrame	OrigNumFrames
50.00	50.00	       6	0	mm	50.00	85	       339
Frame#	Time	
		

85	1.680	-335.74557	111.22942	1751.79004	-730.62933	273.96063	742.02197	-488.55222	276.72614	1485.60010	-479.96939	99.30794	1267.63428	-733.23804	283.34149	875.56274	-876.12219	-78.89765	141.41621	-682.29230	20.49649	524.44592	-756.77185	254.47728	640.16809	-678.75507	155.57986	158.95247	-630.60614	-0.91893	807.24146	-781.82629	262.31870	497.50803	-546.86603	212.79820	163.21320	-546.16351	-10.80723	161.57904				-600.82684	38.80493	166.34689	-677.61102	56.90388	159.14359	-795.45392	181.58138	184.96674	-762.15790	225.31210	204.93616	-589.13068	182.94946	173.41682	-882.72327	296.05481	144.67613	-750.20068	246.94037	573.89539	-640.28900	274.03049	159.71175	-601.63629	274.20380	159.81421	-528.30585	304.11691	146.33821	-453.78583	-77.07548	1476.02808	-825.08569	90.15507	1094.34058	-636.14642	214.08850	792.81812	-719.99921	76.45621	577.13086	-794.41296	32.31311	175.70496	-766.46191	-48.81855	488.09622				-725.58978	68.89890	216.94908	-756.33087	-22.94233	207.74106	-726.25330	-35.24147	616.74866	-730.12939	-32.07139	569.17596	-720.91736	143.53221	219.95998				-599.58923	-62.17759	157.99023	-641.39954	-59.63538	163.12573	-718.94763	-62.18905	756.97974	-518.00769	-72.99992	143.10075							-631.73566	-6.46698	1030.53699	-635.39917	236.46872	1046.93677				-700.83966	197.43507	536.78229	-710.08063	-75.41830	873.72443	
86	1.700	-329.35736	111.05659	1746.99353	-731.63049	274.13318	741.65265	-483.40607	275.88150	1481.47363	-477.69391	99.10815	1263.85437	-734.16064	283.88058	875.72797	-876.12219	-78.89765	141.41621	-683.17871	20.48309	524.91638	-757.34094	254.58954	640.12488	-678.76563	155.63330	159.01974	-632.13879	-0.77498	807.56134	-782.44775	262.57312	497.44858	-547.11743	212.81184	163.03174	-546.11121	-10.79056	161.74568				-600.98560	38.65417	166.22997	-677.63000	56.81398	159.32800	-795.46613	181.46187	184.55768	-762.09509	225.38565	204.77386	-589.16901	182.96771	173.37770	-882.69696	296.30313	144.70746	-751.34253	246.68053	573.58234	-640.33282	274.05927	159.72948	-601.81512	274.10083	159.73184	-528.16870	304.17886	146.32680	-448.47049	-77.53961	1471.99390	-825.93115	90.23684	1095.07153	-637.93262	214.06151	792.68420	-720.92499	76.62007	577.20001	-794.24927	32.45179	175.69569	-767.46277	-49.26086	487.98404				-725.81610	69.01460	217.35272	-756.90808	-22.37465	207.71950	-727.27185	-35.11151	616.26086	-730.92145	-31.72782	568.97858	-720.77191	143.64391	220.07150				-599.59418	-62.33451	158.06606	-641.71118	-59.86148	162.89783	-720.42371	-62.50939	757.10522	-517.94177	-72.92817	143.09164							-633.75439	-6.25678	1030.06714	-636.86188	237.20090	1046.84680				-701.62250	197.91547	536.41168	-711.82629	-75.23083	873.73108	
87	1.720	-323.22702	111.09650	1742.25525	-732.33545	274.09790	741.76898	-478.11310	275.81500	1477.93921	-475.53192	98.72291	1260.15210	-735.26740	283.88275	875.84296	-876.33990	-78.88496	141.49979	-683.73376	20.51257	525.08588	-758.36774	254.86879	639.78180	-678.76563	155.63330	159.01974	-633.48895	-0.94831	807.55548	-783.07141	262.56839	497.54239	-547.12830	212.80653	163.19794	-546.32471	-10.83484	161.53726				-600.85846	38.73902	166.34686	-677.63000	56.81398	159.32800	-795.52209	181.49054	184.76379	-762.29761	225.55817	205.00879	-589.16901	182.96771	173.37770	-882.60834	296.06894	144.52896	-752.08600	247.20950	573.88031	-640.32300	274.12787	159.62764	-601.63629	274.20380	159.81421	-528.35187	304.34979	146.41586	-443.74139	-77.83858	1467.74597	-826.48553	90.69109	1095.69104	-638.73785	214.04179	792.82758	-721.44366	76.49001	577.18726	-794.36475	32.32414	175.74651	-768.23889	-49.40628	487.85449				-725.81592	68.63464	217.01398	-756.92090	-22.60368	208.01459	-728.68146	-35.13934	616.52350	-731.48193	-32.01321	569.15082	-721.33350	143.43779	219.85246				-599.68372	-62.15580	157.69655	-641.52423	-59.63264	163.00839	-721.92212	-62.42021	757.04126	-517.94177	-72.92817	143.09164							-634.86615	-6.13667	1029.34473	-637.66827	236.68982	1045.60913				-702.33203	197.61856	536.29449	-713.57135	-75.13377	873.37579	
88	1.740	-316.87616	110.81670	1737.55176	-733.68835	274.25485	741.44409	-473.21268	275.39929	1474.30920	-473.59180	98.82046	1256.61353	-736.78766	283.88513	875.67731	-876.12219	-78.89765	141.41621	-684.76227	20.76107	524.71497	-759.65717	254.61714	639.50055	-678.76563	155.63330	159.01974	-634.87360	-0.55747	807.52173	-783.69000	262.67181	496.95398	-547.13330	212.80739	163.31543	-546.32666	-10.77511	161.69456				-600.85846	38.73902	166.34686	-677.63000	56.81398	159.32800	-795.56445	181.43874	184.79742	-762.26093	225.53255	205.00127	-589.13068	182.94946	173.41682	-882.53406	296.09598	144.57982	-752.70135	247.18649	573.65173	-640.33881	273.94174	159.57051	-601.72656	274.14752	159.76643	-528.15491	304.03677	146.32214	-439.00131	-78.16535	1463.47778	-827.07458	91.08302	1096.29785	-640.32330	213.97955	792.44312	-722.42456	76.77937	576.87146	-794.37970	32.29680	175.77753	-768.56464	-49.06532	487.78970				-725.92267	68.82323	217.26563	-757.06049	-22.42682	207.70387	-729.48865	-35.10968	616.87024	-732.40283	-32.07922	569.53821	-721.21350	143.55203	219.82312				-599.68372	-62.15580	157.69655	-641.78491	-59.97528	162.77107	-723.41254	-62.56109	757.31561	-517.92590	-72.87240	142.99782							-636.11768	-5.62756	1028.29956	-638.26447	236.75874	1044.87622				-702.75671	197.53256	536.56598	-715.47510	-75.17395	873.95270	
89	1.760	-310.99866	111.12740	1732.53369	-734.96930	274.75253	741.76630	-468.33105	275.04633	1470.43005	-471.39005	98.61320	1252.69849	-738.12122	283.90021	875.47174	-876.12219	-78.89765	141.41621	-685.81262	20.58020	525.29053	-760.42755	254.94611	639.50006	-678.76563	155.63330	159.01974	-636.51160	-0.61639	807.68597	-784.34686	262.91418	497.11844	-547.10083	212.71741	163.17400	-546.14948	-10.88818	161.74106				-600.90912	38.72841	166.28252	-677.72815	56.92001	159.37260	-795.61804	181.47861	184.81194	-762.26093	225.53255	205.00127	-589.21912	182.83356	173.44896	-882.63263	296.08612	144.57532	-753.62659	247.04433	573.41461	-640.27930	273.96136	159.76814	-601.72656	274.14752	159.76643	-528.24139	304.00241	146.24747	-434.35880	-78.04421	1459.25769	-828.00171	91.22748	1096.96191	-641.34796	213.93428	792.90259	-723.55505	76.59078	577.16534	-794.20892	32.31744	175.84102	-769.02460	-49.00013	487.82788				-725.92267	68.82323	217.26563	-757.09314	-22.52451	207.82231	-730.63684	-34.95910	616.41107	-733.16986	-31.72410	569.32959	-721.44110	143.77274	219.64261				-599.68372	-62.15580	157.69655	-641.71118	-59.86148	162.89783	-724.52728	-62.17411	757.01715	-518.06787	-73.13117	143.05104							-637.81982	-5.51218	1027.43787	-639.77814	236.52058	1044.02222				-703.84515	197.61153	536.59406	-716.83801	-74.66170	873.60468	
90	1.780	-305.32416	110.84711	1727.61279	-735.91577	274.81909	741.74725	-463.47534	274.88846	1466.31665	-469.44070	98.32024	1249.48230	-739.56555	284.40820	875.85297	-876.12219	-78.89765	141.41621	-686.21045	20.47644	525.45697	-761.23682	255.18231	639.52380	-678.65045	155.75690	159.11520	-637.92932	-0.31682	807.99664	-784.94733	263.01990	497.05081	-547.16187	212.75285	163.23453	-546.14172	-10.93644	161.74588				-600.80847	38.66006	166.34547	-677.63000	56.81398	159.32800	-795.64441	181.54128	184.72633	-762.26093	225.53255	205.00127	-589.19250	182.90163	173.40820	-882.53406	296.09598	144.57982	-754.29376	246.60185	573.32587	-640.27930	273.96136	159.76814	-601.58472	274.07956	159.85051	-528.42279	304.29593	146.39896	-430.58585	-77.77092	1454.87988	-828.80359	91.13772	1097.76257	-643.21698	213.97037	792.66223	-724.02234	77.12483	577.50818	-794.35718	32.40244	175.73962	-769.96893	-48.98265	488.05545				-725.92267	68.82323	217.26563	-757.09314	-22.52451	207.82231	-731.22772	-35.03253	616.75793	-734.01404	-31.95009	569.60602	-720.93408	143.70688	220.12881				-599.42841	-62.18716	157.71077	-641.78491	-59.97528	162.77107	-726.00586	-62.52194	757.53503	-518.02222	-72.83799	143.11696							-639.38611	-5.47074	1026.39319	-640.42542	236.28172	1043.45520				-704.58661	198.01904	536.51147	-718.12878	-74.70242	873.68616	
